# xmcd CD database file
#
# Track frame offsets:
#	182
#	9975
#	23445
#	31607
#	43355
#	53255
#	63970
#	74245
#	84912
#	96170
#	106417
#	118060
#	130480
#	141732
#	158150
#	170220
#
# Disc length: 2390 seconds
#
# Revision: 4
# Processed by: cddbd v1.5.2PL0 Copyright (c) Steve Scherf et al.
# Submitted via: CDex 1.86
#
DISCID=da095410
DTITLE=Various Artist - Country Music Collection Vol. 3
DYEAR=1993
DGENRE=Country
TTITLE0=Leroy Van Dyke - Walk On By
TTITLE1=Kenny Rogers and The First Edition - Ruby, Don't Take Your Love To Town
TTITLE2=Jerry Lee Lewis - Crazy Arms
TTITLE3=Donna Fargo - The Happiest Girl In The Whole U.S.A
TTITLE4=Hank Locklin - Please Help Me I'm Falling
TTITLE5=Patsy Cline - I Can See An Angel
TTITLE6=George Jones - Walk Through This World With Me
TTITLE7=Carl Perkins - What Am I Living For
TTITLE8=Patsy Cline - Hungry For Love
TTITLE9=Don Williams - Take My Hand For A While
TTITLE10=Charlie Pride - My Eyes Can Only See As Far As You (Live)
TTITLE11=Willie Nelson - Things To Remember
TTITLE12=Faron Young - Country Girl
TTITLE13=Ricky Nelson - Garden Party
TTITLE14=Johnny Cash - Folsom Prison Blues
TTITLE15=Loretta Lynn - Your Squaw Is On The Warpath (Live)
EXTD=YEAR: 1993
EXTT0=
EXTT1=
EXTT2=
EXTT3=
EXTT4=
EXTT5=
EXTT6=
EXTT7=
EXTT8=
EXTT9=
EXTT10=
EXTT11=
EXTT12=
EXTT13=
EXTT14=
EXTT15=
PLAYORDER=
